# xmcd CD database file
#
# Track frame offsets:
#	150
#	15125
#	26450
#	38387
#	48532
#	58900
#	70965
#	84167
#	97827
#	106310
#	117437
#	128277
#	139752
#	150462
#	164832
#	178270
#	190995
#	204387
#	218095
#	230665
#	243050
#	254987
#	269217
#	281520
#	293385
#	305580
#
# Disc length: 4228 seconds
#
# Revision: 0
# Processed by: cddbd v1.5.2PL0 Copyright (c) Steve Scherf et al.
# Submitted via: CDex 1.70beta2
#
DISCID=6e10821a
DTITLE=Jones Classic Country - Jones Classic Country CCC-609
DYEAR=0000
DGENRE=Country
TTITLE0=Fonna Fargo/You Can't Be A Beacon (If your Light Don't Shine)
TTITLE1=JoeStammpley/Soul Song
TTITLE2=Glen Campbell/Dreams Of The Everyday Housewife
TTITLE3=Hank Thompson/New Green Light
TTITLE4=Sonny James/You'reThe Only World I Know
TTITLE5=Porter Wagoner/Misery Loves Company
TTITLE6=Jerry Lee Lewis/Whole Lotta Shakin' Going On
TTITLE7=Conway Twitty/There's A Honky Tonk Angel (Who'll Take Me Back In)
TTITLE8=Elvis Presley/(Let Me Be Your) Teddy Bear
TTITLE9=George Jones/Tender Years
TTITLE10=George Hamilton IV/Break My Mind
TTITLE11=Floyd Cramer/Last Date
TTITLE12=Roger Miller/Engine Engine #9
TTITLE13=Johnny Cash/Orange Blossom Special
TTITLE14=Kitty Wells and Red Foley/One By One
TTITLE15=Ronnie Milsap/Please Don't Tell Me How The Story Ends
TTITLE16=Tammy Wynette/Kids Say The Darndest Things
TTITLE17=Glen Campbell/Gentle On My Mind
TTITLE18=Ray Price/Heart Over Mind
TTITLE19=Mel Tillis/Sawmill
TTITLE20=George Jones/A Picture Of Me (Without You)
TTITLE21=Donna Fargo/Don't Be Angry
TTITLE22=Statler Brothers/Class Of '57
TTITLE23=Dottie West/Here Comes My Baby
TTITLE24=Skeeter Davis/End Of The World
TTITLE25=Webb Pierce/Slowly
EXTD=YEAR: 0000
EXTT0=
EXTT1=
EXTT2=
EXTT3=
EXTT4=
EXTT5=
EXTT6=
EXTT7=
EXTT8=
EXTT9=
EXTT10=
EXTT11=
EXTT12=
EXTT13=
EXTT14=
EXTT15=
EXTT16=
EXTT17=
EXTT18=
EXTT19=
EXTT20=
EXTT21=
EXTT22=
EXTT23=
EXTT24=
EXTT25=
PLAYORDER=
